<svg width="36" height="36" viewBox="0 0 36 36" fill="none" xmlns="http://www.w3.org/2000/svg">
<g clip-path="url(#clip0_97_446)">
<circle cx="18" cy="18" r="18" fill="#CFB39D"/>
<path fill-rule="evenodd" clip-rule="evenodd" d="M18.0093 1.1541e-05C22.1792 -0.00258371 26.221 1.44102 29.4457 4.08477C32.6704 6.72852 34.8784 10.4088 35.6935 14.4983C36.5085 18.5877 35.8801 22.8333 33.9153 26.5113C31.9506 30.1893 28.7711 33.0722 24.9188 34.6684C21.0666 36.2647 16.7799 36.4755 12.7896 35.2651C8.7992 34.0547 5.35212 31.4978 3.03585 28.0304C0.719587 24.563 -0.322494 20.3996 0.0872284 16.2499C0.496951 12.1001 2.33312 8.22094 5.28276 5.27345C6.95211 3.59944 8.93579 2.27181 11.1198 1.36682C13.3039 0.461829 15.6452 -0.00266961 18.0093 1.1541e-05ZM19.4742 13.2627C19.6789 13.0667 19.8422 12.8316 19.9544 12.5713C20.0665 12.311 20.1254 12.0309 20.1273 11.7475C20.1293 11.4641 20.0744 11.1832 19.9658 10.9214C19.8572 10.6596 19.6972 10.4222 19.4952 10.2234C19.2932 10.0245 19.0534 9.86826 18.79 9.7638C18.5265 9.65933 18.2447 9.6088 17.9614 9.6152C17.678 9.6216 17.3989 9.6848 17.1404 9.80105C16.8819 9.91731 16.6494 10.0843 16.4566 10.292L10.2632 16.5733C9.87335 16.9699 9.65488 17.5039 9.65488 18.0601C9.65488 18.6163 9.87335 19.1502 10.2632 19.5469L16.3306 25.6992C16.5249 25.8983 16.7565 26.0572 17.0122 26.1668C17.2679 26.2764 17.5427 26.3346 17.8208 26.338C18.099 26.3414 18.3751 26.2899 18.6334 26.1866C18.8917 26.0833 19.1271 25.9301 19.3262 25.7359C19.5253 25.5416 19.6842 25.31 19.7938 25.0543C19.9034 24.7986 19.9615 24.5238 19.9649 24.2456C19.9683 23.9675 19.9169 23.6914 19.8136 23.4331C19.7103 23.1748 19.5571 22.9393 19.3628 22.7402L16.8052 20.1416L24.0884 20.0977C24.3733 20.1054 24.6568 20.0556 24.922 19.9513C25.1873 19.847 25.4287 19.6904 25.6321 19.4907C25.8354 19.291 25.9964 19.0524 26.1055 18.7891C26.2145 18.5258 26.2694 18.2433 26.2669 17.9583C26.2643 17.6733 26.2043 17.3918 26.0906 17.1305C25.9768 16.8692 25.8115 16.6335 25.6046 16.4375C25.3977 16.2415 25.1535 16.0893 24.8864 15.9897C24.6194 15.8902 24.335 15.8456 24.0503 15.8584L16.8902 15.8994L19.48 13.2627H19.4742Z" fill="#56483E"/>
</g>
<defs>
<clipPath id="clip0_97_446">
<rect width="36" height="36" fill="white"/>
</clipPath>
</defs>
</svg>
